<mxfile host="65bd71144e">
    <diagram id="R40UBbsVWRwJJyZEYB1N" name="Page-1">
        <mxGraphModel dx="1692" dy="825" grid="1" gridSize="10" guides="1" tooltips="1" connect="1" arrows="1" fold="1" page="1" pageScale="1" pageWidth="850" pageHeight="1100" math="0" shadow="0">
            <root>
                <mxCell id="0"/>
                <mxCell id="1" parent="0"/>
                <mxCell id="20" value="" style="whiteSpace=wrap;html=1;fontSize=40;strokeWidth=1;" parent="1" vertex="1">
                    <mxGeometry x="140" y="180" width="570" height="330" as="geometry"/>
                </mxCell>
                <mxCell id="17" value="" style="html=1;shadow=0;dashed=0;align=center;verticalAlign=middle;shape=mxgraph.arrows2.arrow;dy=0.6;dx=40;flipH=1;notch=0;fontSize=40;strokeColor=none;strokeWidth=5;fillColor=#60a917;fontColor=#ffffff;" parent="1" vertex="1">
                    <mxGeometry x="400" y="345" width="110" height="25" as="geometry"/>
                </mxCell>
                <mxCell id="19" value="" style="fontColor=#ffffff;verticalAlign=top;verticalLabelPosition=bottom;labelPosition=center;align=center;html=1;outlineConnect=0;fillColor=#a20025;strokeColor=#6F0000;gradientDirection=north;strokeWidth=2;shape=mxgraph.networks.firewall;fontSize=40;" parent="1" vertex="1">
                    <mxGeometry x="387" y="317.75" width="76.1" height="79.5" as="geometry"/>
                </mxCell>
                <mxCell id="18" value="" style="strokeWidth=1;html=1;shape=mxgraph.flowchart.start_2;whiteSpace=wrap;fontSize=40;fillColor=#60a917;strokeColor=#2D7600;fontColor=#ffffff;" parent="1" vertex="1">
                    <mxGeometry x="412" y="351.5" width="15" height="12" as="geometry"/>
                </mxCell>
                <mxCell id="14" value="" style="html=1;shadow=0;dashed=0;align=center;verticalAlign=middle;shape=mxgraph.arrows2.arrow;dy=0.6;dx=40;flipH=1;notch=0;fontSize=40;strokeColor=none;strokeWidth=5;fillColor=#60a917;fontColor=#ffffff;" parent="1" vertex="1">
                    <mxGeometry x="320" y="345" width="100" height="25" as="geometry"/>
                </mxCell>
                <mxCell id="2" value="&lt;font style=&quot;font-size: 40px&quot;&gt;SSH Tunnel&lt;/font&gt;" style="text;html=1;resizable=0;autosize=1;align=center;verticalAlign=middle;points=[];fillColor=none;strokeColor=none;rounded=0;" parent="1" vertex="1">
                    <mxGeometry x="304.5" y="200" width="230" height="30" as="geometry"/>
                </mxCell>
                <mxCell id="3" value="&lt;div&gt;&lt;span&gt;Local&lt;/span&gt;&lt;/div&gt;" style="whiteSpace=wrap;html=1;fontSize=40;fillColor=#6d8764;fontColor=#ffffff;strokeColor=#3A5431;align=center;strokeWidth=5;" parent="1" vertex="1">
                    <mxGeometry x="170" y="270" width="150" height="160" as="geometry"/>
                </mxCell>
                <mxCell id="5" value="&lt;div&gt;&lt;span&gt;Remote&lt;/span&gt;&lt;/div&gt;" style="whiteSpace=wrap;html=1;fontSize=40;fillColor=#3399FF;fontColor=#000000;strokeColor=#3399FF;align=center;strokeWidth=5;" parent="1" vertex="1">
                    <mxGeometry x="510" y="270" width="150" height="160" as="geometry"/>
                </mxCell>
            </root>
        </mxGraphModel>
    </diagram>
</mxfile>